<svg id="Group_2" data-name="Group 2" xmlns="http://www.w3.org/2000/svg" xmlns:xlink="http://www.w3.org/1999/xlink" viewBox="117 107 1200 1220.678">
  <defs>
    <style>
      .cls-1 {
        fill: none;
      }

      .cls-2 {
        fill: #db4348;
        stroke: #db4348;
        stroke-width: 2px;
      }

      .cls-3 {
        fill: #fff;
        stroke: #95989a;
      }

      .cls-4 {
        stroke: none;
      }

      .cls-5 {
        filter: url(#Exclusion_1);
      }
    </style>
    <filter id="Exclusion_1" x="291.38" y="107" width="826.425" height="1220.678" filterUnits="userSpaceOnUse">
      <feOffset dx="3" dy="3" input="SourceAlpha"/>
      <feGaussianBlur stdDeviation="3" result="blur"/>
      <feFlood flood-opacity="0.161"/>
      <feComposite operator="in" in2="blur"/>
      <feComposite in="SourceGraphic"/>
    </filter>
  </defs>
  <g id="Group_1" data-name="Group 1" transform="translate(117 114)">
    <rect id="Rectangle_1" data-name="Rectangle 1" class="cls-1" width="1200" height="1199.874"/>
    <g class="cls-5" transform="matrix(1, 0, 0, 1, -117, -114)">
      <path id="Exclusion_1-2" data-name="Exclusion 1" class="cls-2" d="M403.211,1200l0,0c-1.009-1.435-102.086-145.407-201.6-314.341C109.634,729.531,0,519.23,0,403.979,0,181.224,180.88,0,403.211,0S806.425,181.224,806.425,403.979c0,115.251-109.635,325.551-201.607,481.676-99.513,168.926-200.6,312.906-201.6,314.341Zm1.747-1079.574c-149.184,0-270.553,124.49-270.553,277.509s121.37,277.506,270.553,277.506S675.511,550.952,675.511,397.935,554.142,120.426,404.958,120.426Z" transform="translate(298.38 114)"/>
    </g>
    <g id="Ellipse_2" data-name="Ellipse 2" class="cls-3" transform="translate(316 118.988)">
      <ellipse class="cls-4" cx="274.5" cy="278.971" rx="274.5" ry="278.971"/>
      <ellipse class="cls-1" cx="274.5" cy="278.971" rx="274" ry="278.471"/>
    </g>
  </g>
</svg>
