<?xml version="1.0" encoding="utf-8"?>
<!-- Generator: Adobe Illustrator 21.0.0, SVG Export Plug-In . SVG Version: 6.00 Build 0)  -->
<svg version="1.1" id="Livello_1" xmlns="http://www.w3.org/2000/svg" xmlns:xlink="http://www.w3.org/1999/xlink" x="0px" y="0px"
	 viewBox="0 0 267 58.7" style="enable-background:new 0 0 267 58.7;" xml:space="preserve">
<style type="text/css">
	.st0{fill:#E73B42;}
	.st1{fill:#B1B1B1;}
	.st2{fill:#FFFFFF;}
	.st3{fill:#F2F2F2;}
</style>
<g>
	<polygon class="st0" points="25.1,11.8 38,4.2 51.2,12.1 64.3,4.2 77.2,11.8 51.3,26.8 	"/>
	<polygon class="st1" points="24.8,12.3 37.8,19.7 37.8,32.7 24.8,40.7 	"/>
	<polygon class="st1" points="25,41.2 38.1,33.2 51.1,40.6 51.1,47.7 38.4,54.8 38.3,48.1 	"/>
	<polygon class="st0" points="37.9,54.8 8.4,39.2 21.3,31.2 24.3,32.8 24.3,41.4 37.9,48.5 	"/>
	<polygon class="st1" points="64.5,19.8 77.5,12.2 77.5,42 64.5,34.4 	"/>
	<polygon class="st0" points="78.1,42 91.7,34.5 78.8,26.9 78.1,27.3 	"/>
</g>
<g>
	<path class="st2" d="M103.9,13.1c7.5,0,11.9,5.6,11.9,12.8c0,7-4.4,12.6-11.9,12.6S92,32.9,92,25.9C92,18.7,96.4,13.1,103.9,13.1z
		 M103.9,34c4.8,0,6.6-4.1,6.6-8.1c0-4.2-1.8-8.3-6.6-8.3s-6.6,4.1-6.6,8.3C97.3,30,99.1,34,103.9,34z"/>
	<path class="st2" d="M119.2,13.7h7.5l5.7,16.7h0.1l5.4-16.7h7.5v24.3h-5V20.7h-0.1l-5.9,17.2h-4.1l-5.9-17h-0.1v17h-5V13.7z"/>
	<path class="st3" d="M150.6,29.7c0,3.1,1.7,6.9,5.8,6.9c3.1,0,4.8-1.8,5.5-4.5h2.1c-0.9,4-3.2,6.3-7.6,6.3c-5.6,0-7.9-4.3-7.9-9.3
		c0-4.6,2.3-9.3,7.9-9.3c5.6,0,7.9,4.9,7.7,9.9H150.6z M162,27.9c-0.1-3.2-2.1-6.3-5.6-6.3c-3.5,0-5.4,3.1-5.8,6.3H162z"/>
	<path class="st3" d="M171.5,28.8l-6.3-8.4h2.7l5,6.7l4.9-6.7h2.7l-6.3,8.4l6.8,9.1h-2.7l-5.5-7.4l-5.4,7.4h-2.7L171.5,28.8z"/>
	<path class="st3" d="M182.8,20.4h2v3.3h0.1c1-2.4,3.4-3.8,6.3-3.8c5.3,0,7.9,4.3,7.9,9.3s-2.5,9.3-7.9,9.3c-2.6,0-5.2-1.3-6.1-3.8
		h-0.1v9.8h-2.1V20.4z M191.1,21.7c-4.7,0-6.2,3.5-6.2,7.5c0,3.6,1.6,7.5,6.2,7.5c4.1,0,5.7-3.8,5.7-7.5S195.1,21.7,191.1,21.7z"/>
	<path class="st3" d="M202,13.7h2.1v24.3H202V13.7z"/>
	<path class="st3" d="M223.7,29.2c0,5-2.9,9.3-8.3,9.3s-8.3-4.2-8.3-9.3c0-5,2.9-9.3,8.3-9.3S223.7,24.1,223.7,29.2z M209.2,29.2
		c0,3.7,2,7.5,6.2,7.5c4.1,0,6.2-3.7,6.2-7.5s-2-7.5-6.2-7.5C211.3,21.7,209.2,25.4,209.2,29.2z"/>
	<path class="st3" d="M226.6,20.4h2v4.1h0.1c1.1-2.8,3.5-4.5,6.6-4.4v2.1c-3.9-0.2-6.5,2.7-6.5,6.3v9.3h-2.1V20.4z"/>
	<path class="st3" d="M237.6,29.7c0,3.1,1.7,6.9,5.8,6.9c3.1,0,4.8-1.8,5.5-4.5h2.1c-0.9,4-3.2,6.3-7.6,6.3c-5.6,0-7.9-4.3-7.9-9.3
		c0-4.6,2.3-9.3,7.9-9.3c5.6,0,7.9,4.9,7.7,9.9H237.6z M249,27.9c-0.1-3.2-2.1-6.3-5.6-6.3c-3.5,0-5.4,3.1-5.8,6.3H249z"/>
	<path class="st3" d="M253.7,20.4h2v4.1h0.1c1.1-2.8,3.5-4.5,6.6-4.4v2.1c-3.9-0.2-6.5,2.7-6.5,6.3v9.3h-2.1V20.4z"/>
</g>
</svg>
