<?xml version="1.0" encoding="utf-8"?>
<!-- Generator: Adobe Illustrator 21.0.0, SVG Export Plug-In . SVG Version: 6.00 Build 0)  -->
<svg version="1.1" id="Livello_1" xmlns="http://www.w3.org/2000/svg" xmlns:xlink="http://www.w3.org/1999/xlink" x="0px" y="0px"
	 viewBox="0 0 257.3 56.7" style="enable-background:new 0 0 257.3 56.7;" xml:space="preserve">
<style type="text/css">
	.st0{fill:#E73B42;}
	.st1{fill:#B1B1B1;}
	.st2{fill:none;}
	.st3{fill:#FFFFFF;}
	.st4{font-family:'HelveticaNeue-Bold';}
	.st5{font-size:34px;}
	.st6{fill:#F2F2F2;}
	.st7{font-family:'HelveticaNeue-Light';}
</style>
<g>
	<polygon class="st0" points="17.8,9.8 30.7,2.2 43.8,10.1 57,2.2 69.9,9.8 44,24.8 	"/>
	<polygon class="st1" points="17.5,10.3 30.5,17.7 30.5,30.7 17.5,38.7 	"/>
	<polygon class="st1" points="17.7,39.2 30.8,31.2 43.8,38.6 43.8,45.7 31,52.8 31,46.1 	"/>
	<polygon class="st0" points="30.5,52.8 1.1,37.2 14,29.2 16.9,30.8 16.9,39.4 30.5,46.5 	"/>
	<polygon class="st1" points="57.1,17.8 70.2,10.2 70.2,40 57.1,32.4 	"/>
	<polygon class="st0" points="70.7,40 84.3,32.5 71.4,24.9 70.7,25.3 	"/>
</g>
<rect x="83.3" y="11.7" class="st2" width="232" height="38.7"/>
<text transform="matrix(1 0 0 1 83.3333 35.9421)"><tspan x="0" y="0" class="st3 st4 st5">OM</tspan><tspan x="56.7" y="0" class="st6 st7 st5">explorer</tspan></text>
</svg>
