<?xml version="1.0" encoding="utf-8"?>
<!-- Generator: Adobe Illustrator 21.0.0, SVG Export Plug-In . SVG Version: 6.00 Build 0)  -->
<svg version="1.1" id="Livello_1" xmlns="http://www.w3.org/2000/svg" xmlns:xlink="http://www.w3.org/1999/xlink" x="0px" y="0px"
	 viewBox="0 0 257.3 56.7" style="enable-background:new 0 0 257.3 56.7;" xml:space="preserve">
<style type="text/css">
	.st0{fill:#E73B42;}
	.st1{fill:#B1B1B1;}
	.st2{fill:none;}
	.st3{enable-background:new    ;}
	.st4{fill:#FFFFFF;}
	.st5{fill:#F2F2F2;}
</style>
<g>
	<polygon class="st0" points="17.8,9.8 30.7,2.2 43.8,10.1 57,2.2 69.9,9.8 44,24.8 	"/>
	<polygon class="st1" points="17.5,10.3 30.5,17.7 30.5,30.7 17.5,38.7 	"/>
	<polygon class="st1" points="17.7,39.2 30.8,31.2 43.8,38.6 43.8,45.7 31,52.8 31,46.1 	"/>
	<polygon class="st0" points="30.5,52.8 1.1,37.2 14,29.2 16.9,30.8 16.9,39.4 30.5,46.5 	"/>
	<polygon class="st1" points="57.1,17.8 70.2,10.2 70.2,40 57.1,32.4 	"/>
	<polygon class="st0" points="70.7,40 84.3,32.5 71.4,24.9 70.7,25.3 	"/>
</g>
<rect x="83.3" y="11.7" class="st2" width="232" height="38.7"/>
<g class="st3">
	<path class="st4" d="M85.4,18.9c0.5-1.6,1.3-2.9,2.3-4.1c1-1.2,2.3-2.1,3.8-2.7c1.5-0.7,3.2-1,5-1c1.9,0,3.6,0.3,5,1
		c1.5,0.7,2.7,1.6,3.7,2.7c1,1.2,1.8,2.5,2.3,4.1c0.5,1.6,0.8,3.2,0.8,5c0,1.8-0.3,3.4-0.8,4.9c-0.5,1.5-1.3,2.9-2.3,4
		s-2.3,2-3.7,2.7c-1.5,0.6-3.2,1-5,1c-1.9,0-3.5-0.3-5-1c-1.5-0.6-2.7-1.5-3.8-2.7s-1.8-2.5-2.3-4c-0.5-1.5-0.8-3.2-0.8-4.9
		C84.6,22.1,84.9,20.4,85.4,18.9z M90.3,26.9c0.2,1,0.6,1.8,1.1,2.6c0.5,0.8,1.2,1.4,2,1.9c0.8,0.5,1.9,0.7,3.1,0.7
		c1.2,0,2.2-0.2,3.1-0.7c0.8-0.5,1.5-1.1,2-1.9c0.5-0.8,0.9-1.6,1.1-2.6c0.2-1,0.4-2,0.4-3c0-1.1-0.1-2.1-0.4-3.1
		c-0.2-1-0.6-1.9-1.1-2.7c-0.5-0.8-1.2-1.4-2-1.9c-0.8-0.5-1.9-0.7-3.1-0.7c-1.2,0-2.2,0.2-3.1,0.7c-0.8,0.5-1.5,1.1-2,1.9
		c-0.5,0.8-0.9,1.7-1.1,2.7c-0.2,1-0.4,2-0.4,3.1C90,24.9,90.1,25.9,90.3,26.9z"/>
	<path class="st4" d="M119.6,11.7l5.7,16.7h0.1l5.4-16.7h7.5v24.3h-5V18.7h-0.1l-5.9,17.2h-4.1l-5.9-17h-0.1v17h-5V11.7H119.6z"/>
</g>
<g class="st3">
	<path class="st5" d="M143.7,30.1c0.2,0.8,0.6,1.6,1,2.2c0.5,0.7,1.1,1.2,1.8,1.6c0.7,0.4,1.6,0.6,2.6,0.6c1.6,0,2.8-0.4,3.7-1.2
		c0.9-0.8,1.5-1.9,1.8-3.3h2.1c-0.5,2-1.3,3.5-2.5,4.6c-1.2,1.1-2.9,1.6-5.2,1.6c-1.4,0-2.6-0.2-3.6-0.7s-1.8-1.2-2.5-2
		c-0.6-0.9-1.1-1.8-1.4-3s-0.5-2.3-0.5-3.6c0-1.2,0.2-2.3,0.5-3.4s0.8-2.1,1.4-3c0.6-0.9,1.5-1.6,2.5-2.1c1-0.5,2.2-0.8,3.6-0.8
		c1.4,0,2.6,0.3,3.6,0.8c1,0.6,1.8,1.3,2.4,2.2c0.6,0.9,1.1,2,1.3,3.2c0.3,1.2,0.4,2.4,0.3,3.6h-13.5
		C143.3,28.5,143.4,29.3,143.7,30.1z M154.3,23.6c-0.3-0.7-0.6-1.4-1.1-2c-0.5-0.6-1.1-1-1.7-1.4c-0.7-0.4-1.5-0.5-2.3-0.5
		c-0.9,0-1.7,0.2-2.3,0.5c-0.7,0.4-1.3,0.8-1.7,1.4c-0.5,0.6-0.9,1.2-1.1,2c-0.3,0.8-0.5,1.5-0.6,2.3h11.4
		C154.7,25.1,154.5,24.3,154.3,23.6z"/>
	<path class="st5" d="M158.2,18.4h2.7l5,6.7l4.9-6.7h2.7l-6.3,8.4l6.8,9.1h-2.7l-5.5-7.4l-5.4,7.4h-2.7l6.8-9.1L158.2,18.4z"/>
	<path class="st5" d="M178,18.4v3.3h0.1c0.5-1.2,1.3-2.2,2.4-2.8s2.4-1,3.8-1c1.3,0,2.5,0.2,3.5,0.7c1,0.5,1.8,1.2,2.5,2
		c0.7,0.9,1.1,1.8,1.5,3c0.3,1.1,0.5,2.3,0.5,3.6c0,1.2-0.2,2.4-0.5,3.6c-0.3,1.1-0.8,2.1-1.5,3c-0.7,0.8-1.5,1.5-2.5,2
		c-1,0.5-2.1,0.7-3.5,0.7c-0.6,0-1.3-0.1-1.9-0.2c-0.6-0.2-1.2-0.4-1.8-0.7s-1-0.7-1.4-1.2c-0.4-0.5-0.7-1-1-1.7h-0.1v9.8h-2.1v-24
		H178z M189.8,24.5c-0.2-0.9-0.6-1.7-1-2.4c-0.5-0.7-1.1-1.3-1.8-1.7c-0.7-0.4-1.6-0.7-2.6-0.7c-1.2,0-2.2,0.2-3,0.6
		c-0.8,0.4-1.4,1-1.9,1.6c-0.5,0.7-0.8,1.5-1,2.4c-0.2,0.9-0.3,1.9-0.3,2.9c0,0.9,0.1,1.8,0.3,2.7c0.2,0.9,0.6,1.7,1.1,2.4
		c0.5,0.7,1.1,1.3,1.9,1.7s1.7,0.7,2.9,0.7c1,0,1.9-0.2,2.6-0.7c0.7-0.4,1.3-1,1.8-1.7c0.5-0.7,0.8-1.5,1-2.4
		c0.2-0.9,0.3-1.8,0.3-2.7C190.1,26.3,190,25.4,189.8,24.5z"/>
	<path class="st5" d="M197.8,11.7v24.3h-2.1V11.7H197.8z"/>
	<path class="st5" d="M212.8,18.6c1,0.5,1.9,1.2,2.6,2s1.2,1.8,1.6,2.9c0.4,1.1,0.5,2.3,0.5,3.6c0,1.3-0.2,2.5-0.5,3.6
		c-0.4,1.1-0.9,2.1-1.6,2.9c-0.7,0.8-1.6,1.5-2.6,2c-1,0.5-2.2,0.7-3.6,0.7c-1.3,0-2.5-0.2-3.6-0.7s-1.9-1.2-2.6-2
		c-0.7-0.8-1.2-1.8-1.6-2.9c-0.4-1.1-0.5-2.3-0.5-3.6c0-1.3,0.2-2.5,0.5-3.6c0.4-1.1,0.9-2.1,1.6-2.9c0.7-0.8,1.6-1.5,2.6-2
		c1-0.5,2.2-0.7,3.6-0.7C210.6,17.9,211.8,18.1,212.8,18.6z M206.6,20.3c-0.8,0.4-1.4,1-1.9,1.7c-0.5,0.7-0.9,1.5-1.2,2.4
		s-0.4,1.8-0.4,2.7c0,0.9,0.1,1.8,0.4,2.7c0.3,0.9,0.6,1.7,1.2,2.4s1.2,1.3,1.9,1.7c0.8,0.4,1.7,0.6,2.7,0.6c1,0,1.9-0.2,2.7-0.6
		c0.8-0.4,1.4-1,1.9-1.7s0.9-1.5,1.2-2.4c0.3-0.9,0.4-1.8,0.4-2.7c0-0.9-0.1-1.8-0.4-2.7c-0.3-0.9-0.6-1.7-1.2-2.4
		c-0.5-0.7-1.2-1.3-1.9-1.7c-0.8-0.4-1.7-0.6-2.7-0.6C208.3,19.7,207.4,19.9,206.6,20.3z"/>
	<path class="st5" d="M222.8,18.4v4.1h0.1c0.5-1.4,1.4-2.5,2.5-3.3s2.5-1.1,4.1-1.1v2.1c-1,0-1.9,0.1-2.7,0.4
		c-0.8,0.3-1.5,0.7-2.1,1.3c-0.6,0.6-1,1.2-1.3,2s-0.5,1.6-0.5,2.6v9.3h-2.1V18.4H222.8z"/>
	<path class="st5" d="M232.5,30.1c0.2,0.8,0.6,1.6,1,2.2c0.5,0.7,1.1,1.2,1.8,1.6c0.7,0.4,1.6,0.6,2.6,0.6c1.6,0,2.8-0.4,3.7-1.2
		c0.9-0.8,1.5-1.9,1.8-3.3h2.1c-0.5,2-1.3,3.5-2.5,4.6s-2.9,1.6-5.2,1.6c-1.4,0-2.6-0.2-3.6-0.7c-1-0.5-1.8-1.2-2.5-2
		c-0.6-0.9-1.1-1.8-1.4-3c-0.3-1.1-0.5-2.3-0.5-3.6c0-1.2,0.2-2.3,0.5-3.4c0.3-1.1,0.8-2.1,1.4-3c0.6-0.9,1.5-1.6,2.5-2.1
		c1-0.5,2.2-0.8,3.6-0.8c1.4,0,2.6,0.3,3.6,0.8c1,0.6,1.8,1.3,2.4,2.2c0.6,0.9,1.1,2,1.3,3.2c0.3,1.2,0.4,2.4,0.3,3.6h-13.5
		C232.1,28.5,232.2,29.3,232.5,30.1z M243.1,23.6c-0.3-0.7-0.6-1.4-1.1-2c-0.5-0.6-1.1-1-1.7-1.4s-1.5-0.5-2.3-0.5
		c-0.9,0-1.7,0.2-2.3,0.5c-0.7,0.4-1.3,0.8-1.7,1.4c-0.5,0.6-0.9,1.2-1.1,2c-0.3,0.8-0.5,1.5-0.6,2.3h11.4
		C243.5,25.1,243.3,24.3,243.1,23.6z"/>
	<path class="st5" d="M250.5,18.4v4.1h0.1c0.5-1.4,1.4-2.5,2.5-3.3s2.5-1.1,4.1-1.1v2.1c-1,0-1.9,0.1-2.7,0.4
		c-0.8,0.3-1.5,0.7-2.1,1.3c-0.6,0.6-1,1.2-1.3,2c-0.3,0.8-0.5,1.6-0.5,2.6v9.3h-2.1V18.4H250.5z"/>
</g>
</svg>
