<svg id="Capa_1" data-name="Capa 1" xmlns="http://www.w3.org/2000/svg" viewBox="0 0 91.82 91.82"><defs><style>.cls-1{fill:#f4f4f4;}.cls-2{fill:#bcbcbc;}.cls-3{fill:#d8d8d8;}.cls-4{fill:#d3d3d3;}.cls-5{opacity:0.07;isolation:isolate;}</style></defs><title>icon_male</title><path class="cls-1" d="M45.91,91.82A45.91,45.91,0,1,0,0,45.91,45.91,45.91,0,0,0,45.91,91.82Z"/><path class="cls-2" d="M26.81,77.21H67v9.13a42.1,42.1,0,0,1-40.28.78Z"/><path class="cls-3" d="M46.92,47.31h0A9.13,9.13,0,0,1,56,56.44V77.21a9.13,9.13,0,0,1-9.13,9.13h0a9.13,9.13,0,0,1-9.13-9.13V56.39A9.13,9.13,0,0,1,46.92,47.31Z"/><path class="cls-2" d="M34.86,86.73,33.63,90c-4.85-1.53-9.76-3.26-13.75-6.42l.88-1.88C23.88,72.88,37.84,78.34,34.86,86.73Z"/><path class="cls-2" d="M59.24,86.73l.91,2.74c4.84-1.7,9.4-3.66,13.31-7l-.13-.78C70.19,72.88,56.24,78.34,59.24,86.73Z"/><path class="cls-4" d="M55.88,60.89V74.58c-3.4,2.47-6.66,3.86-9,3.86S41.35,77,38,74.58V60.89C38,49.8,55.88,49.8,55.88,60.89Z"/><path class="cls-3" d="M46.92,24.12c-30.12,0-19.26,36.34-17.34,39.24C31.74,66.56,42,75,46.92,75s15.13-8.46,17.34-11.65C66.18,60.46,77,24.12,46.92,24.12Z"/><ellipse class="cls-3" cx="25.65" cy="50.61" rx="3.01" ry="5.2" transform="translate(-14.55 10.56) rotate(-18.23)"/><ellipse class="cls-3" cx="68.54" cy="50.61" rx="5.2" ry="3.01" transform="translate(-0.98 99.88) rotate(-71.77)"/><path class="cls-2" d="M40.33,33.7c-9-.19-11.52,9.25-13.25,19.49C22.36,24.69,32.41,19,46.38,19.1c14.49.09,25.71,3.3,20.94,32.54-1.83-8.32-6.16-19.53-13.37-17.93C49,34.79,45.28,33.79,40.33,33.7Z"/><path class="cls-5" d="M52.45,19.41C62.89,20.58,70.19,25.76,68,46.14a2.36,2.36,0,0,1,2.1-.47c1.58.52,2.13,3.15,1.23,5.88s-2.9,4.56-4.48,4l-.23-.09a30.4,30.4,0,0,1-2.46,7.89C63.07,65,59.64,68.18,56,70.79v4.71L56,77.21l3.6,0H67a6.39,6.39,0,0,1,6.29,4.56l.13.75C66,88.75,56.63,91.65,46.93,91.76,46.93,91.76,50.68,19.21,52.45,19.41Z"/></svg>