<svg id="Capa_1" data-name="Capa 1" xmlns="http://www.w3.org/2000/svg" viewBox="0 0 93.82 93.82"><defs><style>.cls-1{fill:#f4f4f4;}.cls-2{fill:#bcbcbc;}.cls-3{fill:#d8d8d8;}.cls-4{fill:#d3d3d3;}.cls-5{opacity:0.07;isolation:isolate;}</style></defs><title>icon_other</title><path class="cls-1" d="M46.91,92.82A45.91,45.91,0,1,0,1,46.91,45.91,45.91,0,0,0,46.91,92.82Z"/><path class="cls-2" d="M26.15,77h41l0,11.08a44.6,44.6,0,0,1-41-.22Z"/><path class="cls-3" d="M46.65,46.53h0a9.3,9.3,0,0,1,9.3,9.3V77a9.3,9.3,0,0,1-9.3,9.3h0a9.3,9.3,0,0,1-9.3-9.3V55.78A9.3,9.3,0,0,1,46.65,46.53Z"/><path class="cls-2" d="M34.37,86.7l-1.24,3.94a44.62,44.62,0,0,1-14-7.31L20,81.61C23.18,72.59,37.4,78.15,34.37,86.7Z"/><path class="cls-2" d="M59.21,86.7,60.13,91c4.93-1.73,10.14-4,14.13-7.37l-.68-2.05C70.37,72.59,56.15,78.15,59.21,86.7Z"/><path class="cls-4" d="M55.79,60.37v14c-3.46,2.52-6.79,3.93-9.13,3.93S41,76.8,37.52,74.32v-14C37.52,49.07,55.79,49.07,55.79,60.37Z"/><path class="cls-3" d="M46.65,22.89c-30.69,0-18.69,37-16.74,40,2.2,3.26,11.75,10.94,16.74,10.94s14.49-7.69,16.74-10.94C65.35,59.93,77.31,22.89,46.65,22.89Z"/><path class="cls-5" d="M52.25,23.37c8,1.71,16.65,7.29,15,24A61.36,61.36,0,0,1,65.79,56a23.06,23.06,0,0,1-2.36,6.62,34.64,34.64,0,0,1-7.52,7.18v5.37L56,77l3.43,0h7.05c2.75-.07,6,1.39,6.75,4l1.05,2.62c-7.06,6-17.88,9.21-27.13,9.31C47.13,93,50.56,23.18,52.25,23.37Z"/></svg>