<svg id="Capa_1" data-name="Capa 1" xmlns="http://www.w3.org/2000/svg" viewBox="0 0 92.82 92.82"><defs><style>.cls-1{fill:#f4f4f4;}.cls-2{fill:#bcbcbc;}.cls-3{fill:#d8d8d8;}.cls-4{fill:#c6c6c6;}.cls-5{opacity:0.07;isolation:isolate;}</style></defs><title>icon_female</title><path class="cls-1" d="M46.41,92.32A45.91,45.91,0,1,0,.5,46.41,45.91,45.91,0,0,0,46.41,92.32Z"/><path class="cls-2" d="M47.67,90.14c-22.92.42-25.54-26.65-24.71-40,1.55-25,24.2-35,33.43-26.41,9.83,0,14.43,12.22,15.55,26.17C73.43,68.44,66.57,89.76,47.67,90.14Z"/><path class="cls-2" d="M66.84,79.1l-.51,8.79a43.93,43.93,0,0,1-38.35,0L27.5,79.1Z"/><path class="cls-2" d="M62,85.63l.57,3.9a43.82,43.82,0,0,0,11.26-6.27C71,77.11,60.84,77.85,62,85.63Z"/><path class="cls-2" d="M32,85.63l-.55,3.82c-4-1.54-8.12-3-11.52-5.68C23.25,76.77,33.14,77.91,32,85.63Z"/><path class="cls-2" d="M32.69,89.86,39.49,79.1H54.78l6.78,10.77a44,44,0,0,1-28.89,0Z"/><path class="cls-3" d="M54.76,59.34V79.1c0,12.42-15.28,12.15-15.28,0V59.34C39.49,49.25,54.76,49.25,54.76,59.34Z"/><path class="cls-4" d="M54.76,59.34V71.85c-2.87,2.25-5.67,3.52-7.64,3.52s-4.78-1.26-7.64-3.52V59.34C39.49,49.25,54.76,49.25,54.76,59.34Z"/><path class="cls-3" d="M47.13,72.26c-5,0-15.46-7.81-18.71-19s2.87-27.5,18.71-27.5,22,16.24,18.71,27.5S52.09,72.26,47.13,72.26Z"/><ellipse class="cls-3" cx="27.44" cy="51.47" rx="3.15" ry="5.44" transform="translate(-18.08 15.01) rotate(-23.24)"/><ellipse class="cls-3" cx="67.24" cy="51.46" rx="5.44" ry="3.15" transform="translate(-6.58 92.94) rotate(-66.76)"/><path class="cls-2" d="M60,34.56c1.81,6.78,4.21,14.17,7.35,18.52C73.35,27.29,55.22,23,44.65,23,32.74,23,23.77,37.1,25.77,53.53c6.35-3.82,11.95-11.39,25.79-23.73"/><path class="cls-5" d="M56.39,23.71c9.83,0,14.43,12.22,15.54,26.17.81,10.24-.9,21.32-5.78,29.25h.66a7.15,7.15,0,0,1,7,4.09,43.66,43.66,0,0,1-26.67,9S53.85,21.49,56.39,23.71Z"/></svg>