<?xml version="1.0" encoding="UTF-8" standalone="no"?>
<!-- Created with Inkscape (http://www.inkscape.org/) -->

<svg
   xmlns:dc="http://purl.org/dc/elements/1.1/"
   xmlns:cc="http://creativecommons.org/ns#"
   xmlns:rdf="http://www.w3.org/1999/02/22-rdf-syntax-ns#"
   xmlns:svg="http://www.w3.org/2000/svg"
   xmlns="http://www.w3.org/2000/svg"
   xmlns:sodipodi="http://sodipodi.sourceforge.net/DTD/sodipodi-0.dtd"
   xmlns:inkscape="http://www.inkscape.org/namespaces/inkscape"
   id="svg2"
   version="1.1"
   inkscape:version="0.91 r13725"
   xml:space="preserve"
   width="110mm"
   height="45mm"
   viewBox="0 0 415.74803 170.07873"
   sodipodi:docname="openmaker-logo.svg"
   inkscape:export-filename="/Users/kino/Desktop/shakermaker/openmaker-logo-white-147x60.png"
   inkscape:export-xdpi="33.866665"
   inkscape:export-ydpi="33.866665"><metadata
     id="metadata8"><rdf:RDF><cc:Work
         rdf:about=""><dc:format>image/svg+xml</dc:format><dc:type
           rdf:resource="http://purl.org/dc/dcmitype/StillImage" /><dc:title></dc:title></cc:Work></rdf:RDF></metadata><defs
     id="defs6" /><sodipodi:namedview
     pagecolor="#ffffff"
     bordercolor="#666666"
     borderopacity="1"
     objecttolerance="10"
     gridtolerance="10"
     guidetolerance="10"
     inkscape:pageopacity="1"
     inkscape:pageshadow="2"
     inkscape:window-width="1866"
     inkscape:window-height="1012"
     id="namedview4"
     showgrid="false"
     fit-margin-top="0"
     fit-margin-left="0"
     fit-margin-right="0"
     fit-margin-bottom="0"
     inkscape:zoom="2.8284271"
     inkscape:cx="192.71035"
     inkscape:cy="84.367283"
     inkscape:window-x="28"
     inkscape:window-y="3"
     inkscape:window-maximized="0"
     inkscape:current-layer="g10"
     units="mm"
     inkscape:document-units="mm"
     inkscape:snap-bbox="true"
     inkscape:snap-page="true" /><g
     id="g10"
     inkscape:groupmode="layer"
     inkscape:label="ShakerMaker_modifiche_proposte"
     transform="matrix(1.25,0,0,-1.25,-376.96126,1443.1913)"><g
       id="g4324"
       transform="translate(-1.1835215,0)"><g
         id="g4296"><path
           d="m 390.97359,1069.9348 -54.27621,29.8544 -24.39722,-15.0629 54.77509,-28.8916"
           style="fill:#ed3047;fill-opacity:1;fill-rule:nonzero;stroke:white;stroke-width:0.75590551;stroke-linecap:round;stroke-linejoin:round;stroke-miterlimit:8;stroke-dasharray:none;stroke-opacity:1;paint-order:markers fill stroke"
           id="path2156"
           inkscape:connector-curvature="0" /><path
           id="path2158"
           d="m 438.98743,1079.2737 26.12776,14.208 -24.39627,14.4712 -1.73149,-0.8521"
           style="fill:#ed3047;fill-opacity:1;fill-rule:nonzero;stroke:white;stroke-width:0.75590551;stroke-linecap:round;stroke-linejoin:round;stroke-miterlimit:8;stroke-dasharray:none;stroke-opacity:1;paint-order:normal"
           inkscape:connector-curvature="0" /><path
           inkscape:connector-curvature="0"
           id="path2160"
           d="m 342.39539,1134.9261 48.54078,-27.8253 48.05126,27.8253 -24.39534,14.4692 -23.90019,-14.4692 -23.90023,14.4692 z"
           style="fill:#ed3047;fill-opacity:1;fill-rule:nonzero;stroke:white;stroke-width:0.75590551;stroke-linecap:round;stroke-linejoin:round;stroke-miterlimit:8;stroke-dasharray:none;stroke-opacity:1;paint-order:markers fill stroke" /><path
           sodipodi:nodetypes="ccccc"
           d="m 438.98743,1079.2737 -24.39534,14.0991 0,27.2899 24.39534,14.2634 z"
           style="fill:#a7a5a6;fill-opacity:1;fill-rule:nonzero;stroke:white;stroke-width:0.75590551;stroke-linecap:round;stroke-linejoin:round;stroke-miterlimit:8;stroke-dasharray:none;stroke-opacity:1;paint-order:markers fill stroke"
           id="path2162"
           inkscape:connector-curvature="0" /><path
           sodipodi:nodetypes="ccccc"
           d="m 342.39539,1081.4457 24.39628,15.0639 0,24.3346 -24.39628,14.0819 z"
           style="fill:#a7a5a6;fill-opacity:1;stroke:white;stroke-width:0.75590545;stroke-linecap:round;stroke-linejoin:round;stroke-miterlimit:8;stroke-dasharray:none;stroke-opacity:1;paint-order:markers fill stroke"
           id="path2164"
           inkscape:connector-curvature="0" /><path
           d="m 367.07525,1055.8347 23.89834,13.3589 0,13.4734 -24.18194,13.8426 -24.39626,-15.0639 24.67986,-12.8778 z"
           style="fill:#a7a5a6;fill-opacity:1;fill-rule:nonzero;stroke:white;stroke-width:0.75590551;stroke-linecap:round;stroke-linejoin:round;stroke-miterlimit:4;stroke-dasharray:none;stroke-opacity:1;paint-order:markers fill stroke"
           id="path2166"
           inkscape:connector-curvature="0" /></g><g
         id="text306-6"
         style="font-variant:normal;font-weight:800;font-stretch:normal;font-size:41.20616531px;font-family:'Open Sans Extrabold';-inkscape-font-specification:OpenSans-Extrabold;writing-mode:lr-tb;fill:#ed3047;fill-opacity:1;fill-rule:nonzero;stroke:none"
         transform="scale(1.00005,-0.99995003)"><path
           id="path4305"
           d="m 429.22567,-1046.3636 q 0,7.4244 -3.64176,11.2874 -3.64175,3.8631 -10.6637,3.8631 -6.92135,0 -10.62347,-3.8832 -3.68199,-3.8832 -3.68199,-11.3075 0,-7.3439 3.66187,-11.207 3.682,-3.8832 10.68383,-3.8832 7.02195,0 10.64358,3.843 3.62164,3.8429 3.62164,11.2874 z m -20.24092,0 q 0,8.531 5.93546,8.531 3.01803,0 4.46668,-2.0724 1.46878,-2.0724 1.46878,-6.4586 0,-4.4063 -1.4889,-6.4988 -1.46877,-2.1126 -4.40632,-2.1126 -5.9757,0 -5.9757,8.6114 z"
           inkscape:connector-curvature="0" /><path
           id="path4307"
           d="m 447.76155,-1031.2131 q -1.73034,0 -3.09851,-0.5633 -1.36818,-0.5835 -2.71623,-2.0724 l -0.36216,0 q 0.36216,2.3943 0.36216,2.9778 l 0,9.1547 -7.867,0 0,-32.6954 6.39823,0 1.10661,2.8973 0.36216,0 q 2.1931,-3.2997 6.05618,-3.2997 3.7826,0 5.93546,3.1388 2.15286,3.1387 2.15286,8.6114 0,5.513 -2.25346,8.692 -2.23334,3.1588 -6.0763,3.1588 z m -2.63575,-17.4241 q -1.73034,0 -2.43454,1.2475 -0.68409,1.2273 -0.74445,3.6619 l 0,0.6237 q 0,2.9375 0.78469,4.2454 0.78469,1.3078 2.47478,1.3078 1.50902,0 2.1931,-1.2877 0.68409,-1.3078 0.68409,-4.3058 0,-2.9375 -0.68409,-4.2051 -0.68408,-1.2877 -2.27358,-1.2877 z"
           inkscape:connector-curvature="0" /><path
           id="path4309"
           d="m 471.58108,-1031.2131 q -5.69402,0 -8.85289,-3.018 -3.13875,-3.0382 -3.13875,-8.6316 0,-5.7745 2.91743,-8.8529 2.91742,-3.0985 8.32976,-3.0985 5.15077,0 7.94748,2.6961 2.81682,2.676 2.81682,7.7262 l 0,3.5009 -14.06401,0 q 0.0805,1.9114 1.38829,2.9979 1.32793,1.0865 3.60151,1.0865 2.07239,0 3.80272,-0.3823 1.75046,-0.4024 3.7826,-1.348 l 0,5.6537 q -1.85106,0.9457 -3.82284,1.3079 -1.97178,0.3621 -4.70812,0.3621 z m -0.46277,-18.249 q -1.38829,0 -2.33394,0.8853 -0.92553,0.8652 -1.08649,2.7363 l 6.76038,0 q -0.0402,-1.6498 -0.94565,-2.6357 -0.88528,-0.9859 -2.3943,-0.9859 z"
           inkscape:connector-curvature="0" /><path
           id="path4311"
           d="m 500.42666,-1031.6155 0,-12.4343 q 0,-2.2735 -0.66396,-3.4204 -0.64385,-1.167 -2.09251,-1.167 -1.9919,0 -2.87718,1.5895 -0.88529,1.5895 -0.88529,5.4526 l 0,9.9796 -7.867,0 0,-22.7962 5.93546,0 0.98589,2.8169 0.46276,0 q 1.00601,-1.6097 2.77659,-2.4145 1.7907,-0.8048 4.10452,-0.8048 3.7826,0 5.8751,2.1931 2.11262,2.1931 2.11262,6.1769 l 0,14.8286 -7.867,0 z"
           inkscape:connector-curvature="0" /></g><g
         id="text310-1"
         style="font-variant:normal;font-weight:300;font-stretch:normal;font-size:41.20616531px;font-family:'Open Sans Light';-inkscape-font-specification:OpenSans-Light;writing-mode:lr-tb;fill:#ed3047;fill-opacity:1;fill-rule:nonzero;stroke:none"
         transform="scale(1.00005,-0.99995003)"><path
           id="path4314"
           d="m 528.03485,-1031.6155 -10.96551,-27.1622 -0.16096,0 q 0.16096,2.4949 0.16096,5.1105 l 0,22.0517 -1.97178,0 0,-29.4157 3.17899,0 10.42226,25.8746 0.12072,0 10.42227,-25.8746 3.09851,0 0,29.4157 -2.07238,0 0,-22.2932 q 0,-2.3339 0.24144,-4.8288 l -0.16096,0 -11.00575,27.122 -1.30781,0 z"
           inkscape:connector-curvature="0" /><path
           id="path4316"
           d="m 563.4348,-1031.6155 -0.50301,-3.4607 -0.16096,0 q -1.64985,2.1127 -3.40031,2.998 -1.73034,0.8651 -4.10452,0.8651 -3.21923,0 -5.00993,-1.6498 -1.7907,-1.6499 -1.7907,-4.5673 0,-3.1991 2.65587,-4.9697 2.67598,-1.7706 7.72615,-1.8712 l 4.16488,-0.1207 0,-1.4487 q 0,-3.1186 -1.26757,-4.7081 -1.26757,-1.5895 -4.0844,-1.5895 -3.03815,0 -6.29762,1.6901 l -0.74445,-1.7303 q 3.60152,-1.6901 7.12255,-1.6901 3.60152,0 5.37209,1.8712 1.7907,1.8711 1.7907,5.8348 l 0,14.5469 -1.46877,0 z m -8.04808,-1.4084 q 3.50091,0 5.51293,-1.9919 2.03214,-2.012 2.03214,-5.5733 l 0,-2.1528 -3.82283,0.1609 q -4.60753,0.2213 -6.57931,1.4487 -1.95166,1.2072 -1.95166,3.7826 0,2.0522 1.24745,3.1991 1.26758,1.1267 3.56128,1.1267 z"
           inkscape:connector-curvature="0" /><path
           id="path4318"
           d="m 573.94642,-1041.2128 11.16671,-12.2733 2.41442,0 -8.61144,9.3357 9.35589,12.5349 -2.3943,0 -8.30964,-11.046 -3.5814,3.2595 0,7.7865 -1.9919,0 0,-31.307 1.9919,0 0,15.6937 -0.14084,6.016 0.1006,0 z"
           inkscape:connector-curvature="0" /><path
           id="path4320"
           d="m 600.77132,-1031.2131 q -4.76849,0 -7.44448,-2.9375 -2.65586,-2.9376 -2.65586,-8.2292 0,-5.2312 2.57538,-8.37 2.57539,-3.1589 6.94147,-3.1589 3.86308,0 6.09642,2.6961 2.23334,2.6962 2.23334,7.3238 l 0,1.6096 -15.75411,0 q 0.0402,4.5069 2.0925,6.8811 2.07238,2.3742 5.91534,2.3742 1.87117,0 3.27959,-0.2616 1.42853,-0.2615 3.60151,-1.1267 l 0,1.8108 q -1.85106,0.8048 -3.42043,1.0865 -1.56938,0.3018 -3.46067,0.3018 z m -0.58349,-20.925 q -3.15887,0 -5.07029,2.0925 -1.91142,2.0724 -2.23334,5.9958 l 13.52077,0 q 0,-3.8027 -1.64986,-5.9354 -1.64985,-2.1529 -4.56728,-2.1529 z"
           inkscape:connector-curvature="0" /><path
           id="path4322"
           d="m 623.17212,-1053.9087 q 1.3883,0 2.97779,0.2817 l -0.38228,1.9114 q -1.36817,-0.342 -2.83695,-0.342 -2.79671,0 -4.5874,2.3742 -1.7907,2.3742 -1.7907,5.9958 l 0,12.0721 -1.9919,0 0,-21.8706 1.6901,0 0.2012,3.9435 0.14084,0 q 1.34805,-2.4144 2.87719,-3.3802 1.52913,-0.9859 3.70211,-0.9859 z"
           inkscape:connector-curvature="0" /></g></g></g></svg>