<?xml version="1.0" encoding="utf-8"?>
<!-- Generator: Adobe Illustrator 21.0.0, SVG Export Plug-In . SVG Version: 6.00 Build 0)  -->
<svg version="1.1" id="Livello_1" xmlns="http://www.w3.org/2000/svg" xmlns:xlink="http://www.w3.org/1999/xlink" x="0px" y="0px"
	 viewBox="0 0 41 40.8" style="enable-background:new 0 0 41 40.8;" xml:space="preserve">
<style type="text/css">
	.st0{fill:#A7A5A6;}
	.st1{fill:#ED3045;}
</style>
<path class="st1" d="M20.3,0C11.2,0,3.8,7.7,3.8,17.1c0,5,2.1,9.5,5.3,12.6c0.1,0.1,9,9.2,10.1,10.3c1,1,1.1,1.1,2.2,0
	c0.9-0.9,10.1-10.3,10.1-10.3c3.3-3.1,5.4-7.6,5.4-12.6C36.8,7.7,29.4,0,20.3,0z M20.3,28.6c-6.5,0-11.8-5.3-11.8-11.8
	C8.5,10.2,13.8,5,20.3,5c6.5,0,11.8,5.3,11.8,11.8C32.1,23.3,26.8,28.6,20.3,28.6z"/>
</svg>
